<svg version="1.1" xmlns="http://www.w3.org/2000/svg" viewBox="0 0 706 175" width="706" height="175">
  <!-- svg-source:excalidraw -->
  
  <defs>
    <style>
      @font-face {
        font-family: "Virgil";
        src: url("https://excalidraw.com/Virgil.woff2");
      }
      @font-face {
        font-family: "Cascadia";
        src: url("https://excalidraw.com/Cascadia.woff2");
      }
    </style>
  </defs>
  <rect x="0" y="0" width="706" height="175" fill="#ffffff"></rect><g stroke-linecap="round" transform="translate(10 13) rotate(0 87.5 24)"><path d="M0 0 C0 0, 0 0, 0 0 M0 0 C0 0, 0 0, 0 0 M0.53 5.88 C1.48 3.83, 3.76 2.37, 4.67 0.56 M-0.55 6.02 C1.55 4.14, 3.54 2.51, 4.95 0.68 M0.72 13.5 C2.27 10.28, 3.96 7.52, 11.09 -1.41 M-0.17 12.71 C3.46 6.95, 8.89 3.19, 10.35 0.49 M1.5 18.99 C4.01 12.75, 8.99 5.05, 16.98 0.04 M0.29 19.29 C5.48 11.93, 11.99 4.73, 16.11 -0.38 M2 23.98 C6.96 17.75, 12.34 10.36, 20.81 -1.22 M1.04 23.29 C5.79 17.53, 10.96 11.03, 20.53 0.62 M1.94 31.99 C7.81 22.44, 13.93 13.74, 25.55 2.27 M-0.2 30.81 C4.91 23.91, 11.76 17.8, 26.84 0.55 M-1.97 35.17 C10.94 24.12, 20.82 13.41, 30.21 -1.82 M-0.36 37.45 C10.4 24.36, 22.27 11.02, 32.09 0.47 M1.57 43.52 C11.81 28.81, 21.83 15.55, 36.14 -1.3 M0.25 42.5 C8.67 33.59, 15.56 25.9, 37.15 -0.7 M0.44 49.08 C12.1 34.83, 24.43 19.85, 43.62 1.14 M-0.04 48.08 C17.67 29.5, 34.32 10.1, 43.27 -0.52 M5.11 48.97 C18.34 33.07, 27.72 22.28, 45.96 0.57 M5.59 49.29 C15.44 36.01, 26.33 24.93, 48.14 0.69 M10.2 47.88 C23.64 32.47, 39.2 15.93, 54.19 -1.57 M12.01 47.78 C24.36 34.33, 37.4 18.2, 52.45 -0.53 M16.98 47.86 C31.65 29.12, 50.29 10.91, 59.12 -0.82 M16.57 48.58 C32.72 28.85, 49.67 10.57, 57.95 1 M20.83 46.94 C35.34 32.97, 46.33 16.88, 64.02 -1.13 M22.45 47.8 C34.86 32.17, 49.15 16.06, 64.03 0.7 M25.28 47.81 C39.13 33.61, 50.57 20.8, 70.7 1.87 M26.7 48.33 C36.97 36.99, 46.96 24.24, 69.74 -0.02 M30.66 46.37 C45.1 35.57, 54.68 20.9, 76.15 1.36 M32.82 47.51 C42.9 35.19, 53.07 24.08, 74.42 -0.1 M36.28 48.45 C49.58 33.99, 64.91 19.99, 78.68 0.06 M36.79 48.87 C52.32 31.02, 67.12 12.69, 79.7 0.86 M44.95 46.33 C60.63 28.12, 77.02 8.64, 86.54 -1.17 M43.68 47.75 C51.76 35.91, 61.78 25.29, 84.09 0.28 M49.2 47.48 C66 29.75, 81 10.58, 88.03 1.25 M47.68 49.05 C64.31 29.53, 81.48 9.77, 89.06 0.32 M51.87 47.06 C68.75 31.27, 82.56 18.74, 96.12 -1.7 M54.65 48.85 C68.43 29.17, 84.38 12.61, 95.54 -0.49 M60.22 48.66 C70.67 36.26, 83.72 21.2, 102.61 0.96 M58.22 48.16 C68.41 37.22, 78.66 24.48, 100.07 0.52 M61.91 49.6 C79.82 31.49, 95.64 12.21, 106.72 0.85 M63.69 49.33 C76.55 34.71, 86.78 20.5, 107.28 -0.26 M70.42 49.83 C80.1 34.33, 91.33 23.66, 113.23 -1.18 M69.33 47.97 C78.45 37.42, 89.38 25.85, 112.02 -0.92 M74.44 48.8 C87.83 34.26, 96.17 21.1, 116.47 2.37 M73.77 48.93 C90.25 31.4, 104.99 14.36, 117.21 0.32 M81.84 46.86 C92.57 30.31, 109.39 15.63, 121.66 -1.52 M79.91 48.71 C95.79 31.69, 110.1 13.23, 121.23 -0.9 M85.8 49.84 C100.38 32.42, 110.48 15.9, 126.41 -1.45 M84.95 49.15 C99.51 31.18, 113.57 15.93, 127.23 0.84 M89.44 49.71 C105.48 29.6, 120.52 12.49, 132.59 -0.32 M90.95 49.1 C100.63 36, 110.25 24.42, 133.05 -0.85 M95.94 49.19 C106.27 39.35, 114.07 27.67, 136.53 1.4 M94.93 48.15 C107.64 35, 121.24 19.04, 137.29 -0.41 M101.15 46.39 C114.81 32.04, 132.21 13.1, 141.63 -1.79 M101.41 48.29 C116.13 31.44, 130.84 14.43, 143.86 -0.74 M107.74 47.41 C117.72 32.64, 133.38 16.23, 148.44 0.26 M106.48 47.61 C117.11 34.76, 128.8 23.81, 148.05 0.58 M113.8 46.97 C120.6 38.83, 130.01 28.36, 155.35 -2.06 M112.34 47.94 C121.03 37.68, 129.36 27.91, 153.08 -1.08 M115.01 49.09 C130.44 34.02, 143.33 16.38, 160.67 -1.48 M117.39 48.64 C133.45 29.21, 149.3 11.16, 158.18 0.32 M121.19 47.6 C137.31 33.42, 148.94 17.12, 163.27 -1.23 M122.78 48.16 C131.09 37.46, 138.97 28.65, 165.14 -0.88 M126.5 46.9 C139.85 33.67, 157.44 13.94, 168.7 1.61 M126.47 47.84 C135.82 38.38, 147.01 27.8, 170.39 -0.26 M134.02 46.47 C150.27 28.16, 163.69 10.77, 173.82 0.69 M133.81 47.52 C147.75 31.15, 162.59 14.14, 175.53 0.28 M137.9 49.58 C150.17 35.35, 163.17 20.44, 178.95 3.32 M137.57 49.28 C145.7 38.71, 154.86 28.59, 177.45 2.54 M143.97 47.85 C157.71 31.52, 169.45 15.76, 178.49 8.8 M144.55 47.08 C153.75 36.64, 164.31 24.17, 176.87 9.38 M147.85 49.92 C159.77 37.23, 170.46 24.62, 178.23 12.77 M149.58 48.49 C159.56 36.44, 171.75 22.5, 177.58 14.16 M155.62 46.06 C159.24 41.7, 168.19 34.34, 176.87 21.17 M154.15 48.34 C163.57 38.89, 172.71 28.33, 177.96 21.75 M157.91 48.78 C165.79 41.3, 170.37 37.77, 176.68 28.54 M158.41 48.47 C164.33 43.08, 168.89 37.34, 177.45 27.9 M166.52 49.49 C168.87 42.83, 169.92 39.97, 176.82 30.94 M165.78 47.31 C168.85 43.23, 173.2 37.86, 177.98 33.21 M169.13 47.59 C171.62 46.11, 175.2 42.49, 178.43 39.02 M169.38 47.96 C172.51 44.86, 176.48 41.63, 177.46 39.17" stroke="#868e96" stroke-width="0.5" fill="none"></path><path d="M0.15 -0.78 C67.2 -1.4, 132.57 0.18, 173.17 1.68 M0.98 0.04 C38.52 -0.17, 75.91 0.29, 174.66 -0.67 M174.24 1.17 C175.68 18.88, 173.58 35.03, 174.88 46.78 M174.25 0.93 C175.59 16.11, 173.93 31.07, 175.18 47.24 M173.1 47.24 C123.99 47.95, 71.05 50.34, 1.76 49.24 M175.59 48.55 C113.56 46.87, 50.95 46.26, -0.91 47.13 M1.41 46.67 C-0.16 31.52, -2.04 12.72, 1.5 1.19 M-0.23 48.93 C-0.27 34.55, 0.93 20.46, -0.19 0.93" stroke="#000000" stroke-width="1" fill="none"></path></g><g transform="translate(42.5 24.5) rotate(0 55 12.5)"><text x="55" y="18" font-family="Virgil, Segoe UI Emoji" font-size="20px" fill="#000000" text-anchor="middle" style="white-space: pre;" direction="ltr">Foo service</text></g><g stroke-linecap="round" transform="translate(413 10) rotate(0 84.5 23.5)"><path d="M0 0 C0 0, 0 0, 0 0 M0 0 C0 0, 0 0, 0 0 M0.05 6.15 C1.63 4.72, 3.97 1.27, 5.16 -0.29 M0.08 6.6 C0.75 5.1, 2.59 3.31, 5.14 0.38 M-0.68 11.74 C3.94 9.67, 6.66 5.58, 10.44 1.22 M-0.11 11.66 C2.38 10.07, 4.13 6.61, 10.57 -0.61 M-0.53 17.23 C4.5 14.96, 10.73 8.01, 16.02 -0.64 M-1.05 17.68 C5.18 12.5, 9.96 6.36, 15.41 0.97 M0.39 25.21 C5.07 15.2, 10.79 11.34, 19.64 1.52 M0.78 23.33 C5.96 18.14, 11.51 11.3, 21.82 -0.43 M0.19 29.82 C9.06 22.02, 17.87 11.04, 25.72 -0.88 M-0.94 30.31 C6.47 22.82, 13.97 15.65, 25.79 0.56 M-0.11 38.8 C12.56 24.07, 23.2 10.26, 33.75 -1.57 M0.69 36.16 C12.08 21.8, 24.31 8.31, 32.32 0.22 M-0.08 43.11 C11.95 29.27, 22.84 17.51, 35.57 -1.7 M-0.52 41.72 C15.46 25.87, 30.19 8.84, 35.91 1 M2.04 48.97 C9.78 35.5, 19.33 24.2, 43.31 -0.49 M1.19 47.22 C15.45 32.39, 28.67 15.88, 43.44 0.76 M7.91 48.81 C15.44 37.74, 25.01 25.42, 46.68 2.14 M7.14 47.05 C16.77 34.96, 29.4 20.7, 46.64 0.13 M11.25 48.63 C24.9 32.38, 35.22 19.78, 52.95 -1.05 M11.37 47.17 C21.12 38.35, 29.29 26.21, 53.04 -0.21 M16.22 45.87 C25.28 35.08, 34.77 26.34, 56.22 0.77 M16.2 46.79 C25.62 36.94, 34.23 26.34, 58.35 -0.19 M21.56 48.26 C30.48 36.68, 36.55 29.31, 65.37 -2.13 M21.31 47.3 C36.7 31.61, 49.58 14.22, 63.45 -1.06 M27.72 47.96 C42.2 28.88, 58.11 11.42, 69.41 1.31 M28.03 48.23 C44.03 28.49, 60.4 10.58, 68.83 -0.06 M34.31 46.95 C40.06 39.53, 48.18 28.27, 73.34 0.35 M31.79 48.64 C40.88 38.03, 50.66 25.58, 73.48 -1.13 M39.92 46.38 C49.61 34.85, 61.52 21.1, 79.55 -0.21 M39.05 48.39 C49.83 32.94, 63.76 19.06, 79.37 0.44 M43.53 47.98 C52.47 34.19, 63.33 25.52, 83.68 1.38 M43.73 47.49 C60.17 30.56, 76.36 9.91, 84.38 -0.72 M48.39 47.39 C64.87 32.42, 78.33 14.04, 91.99 1.18 M48.16 47.37 C61.85 31.17, 75.55 15.08, 90.73 -0.72 M55.34 47.59 C66.07 32.31, 78.74 20.05, 97.27 -1.09 M53.5 48.2 C69.48 30.59, 84.06 14.36, 95.9 -1.11 M58.77 48.19 C72.29 35.18, 83.84 20.08, 100.16 -0.62 M58.71 48.24 C75 28.9, 91.5 9.36, 101.12 0.44 M63.9 46.92 C76.71 32.13, 92.55 17.16, 105.08 -2.19 M64.94 47.12 C74.23 34.68, 85.99 23.15, 106.24 -0.55 M70.76 48.9 C82.84 33.09, 96.6 13.47, 109.54 1.25 M70.53 47.15 C83.03 33.61, 95.22 20.02, 112.23 -0.05 M75.45 48.08 C85.09 36.09, 99.2 23.97, 115.44 -1.34 M75.38 48.65 C84.09 37.96, 93.59 28.07, 115.42 0.52 M82.12 48.58 C95.86 29.59, 110.78 13.46, 121.67 -1.43 M79.93 47.25 C95.25 31.73, 109.65 15.21, 121.22 -0.13 M84.27 46.09 C92.62 38.93, 102.75 29.28, 128.77 -1.3 M85.59 47.22 C101.42 29.16, 116.45 11.01, 127.88 0.4 M92.68 49.23 C100.79 35.53, 110.76 21.71, 134.16 0.06 M91.67 46.75 C106.08 32.16, 119.32 16.13, 132.72 0.27 M96.73 48.94 C108.27 36.25, 118.07 19.35, 137.52 0.36 M95.82 47.29 C107.73 35.47, 117.22 22.17, 136.59 0.69 M100.33 47.81 C117.48 31.52, 131.64 11.2, 144.67 -0.63 M100.98 46.86 C117.32 29.74, 133.65 10.55, 142.82 -0.73 M107.24 49.53 C119.28 31.34, 133.92 18.67, 148.91 0.29 M107.79 47.35 C115.07 37.84, 125.46 26.14, 147.63 -0.72 M113.01 48.18 C127.77 29.28, 141.51 15.03, 154.94 -0.88 M111.57 47.84 C126.03 32.28, 140.05 16.31, 153.09 -0.99 M118.29 49.7 C130.73 30.11, 145.14 12.57, 160.19 2.05 M116.7 47.93 C126.31 36.68, 134.09 26.85, 159.54 1.08 M124.74 49.16 C138.24 29.64, 153.85 11.4, 162.76 -1.18 M123.62 46.99 C134.76 35.19, 144.98 21.46, 164.55 -0.31 M128.41 48.24 C139.73 32.88, 154.21 18.11, 170.7 0.13 M127.2 47.56 C142.08 30.64, 157.27 13.81, 169.34 0.03 M134.94 49.27 C142.61 37.95, 151.17 28.13, 168.08 5.75 M133.1 47.36 C141.85 39.46, 148.45 28.58, 169.81 6.29 M140.22 48.88 C149.96 35.95, 159.24 26.24, 171.32 12.06 M139.42 46.85 C150.54 34.88, 163.08 19.68, 170.02 13.18 M143.06 47.67 C148.48 43.35, 152.5 34.5, 170.14 19.81 M144.45 48.81 C151.85 37.91, 161.44 28.78, 170.15 19.56 M148.39 48.27 C157.1 38.29, 163.3 33.81, 167.34 26.89 M148.95 48.4 C156.41 39.74, 161.53 34.15, 169.37 25.22 M152.64 48.75 C159.13 44.14, 165.17 38.38, 167.5 30.05 M154.58 48.47 C158.18 45.13, 160.48 40.14, 169.59 30.47 M159.74 47.9 C161.64 43.81, 164.03 41.3, 169.47 38.03 M160.59 47.1 C161.9 44.54, 163.73 42.09, 169.15 37.5 M165.31 47.68 C166.06 46.04, 168.36 43.72, 169.79 43.09 M165.17 47.92 C165.69 46.5, 167.12 45.75, 169.38 42.94" stroke="#fa5252" stroke-width="0.5" fill="none"></path><path d="M-0.15 1.66 C37.3 -0.62, 70.12 1.49, 167.32 -1.49 M0.54 0.89 C55.76 -0.46, 113.96 -0.52, 169.52 -0.12 M170.68 0.39 C170.46 15.07, 167.24 27.26, 170.94 45.06 M168.86 0.11 C168.39 17.53, 170.29 35.31, 169.29 47.98 M167.49 48.08 C118.78 49.31, 69.86 49.32, 1.15 48.94 M169.06 47.44 C124.66 47.65, 80.06 48.31, -0.87 47.39 M0.52 47.47 C1.74 35.16, -0.83 19.48, -1.42 1.53 M0.32 46.74 C0.19 32.56, -0.76 19.67, -0.63 0.75" stroke="#000000" stroke-width="1" fill="none"></path></g><g transform="translate(442 20) rotate(0 56.5 12.5)"><text x="56.5" y="18" font-family="Virgil, Segoe UI Emoji" font-size="20px" fill="#000000" text-anchor="middle" style="white-space: pre;" direction="ltr">Bar service</text></g><g stroke-linecap="round" transform="translate(412 126) rotate(0 86 19.5)"><path d="M0 0 C0 0, 0 0, 0 0 M0 0 C0 0, 0 0, 0 0 M-0.04 5.63 C1.12 5.61, 3.02 3.27, 5.35 0.01 M-0.04 6.65 C2.22 3.69, 3.95 1.38, 4.95 0.45 M1.33 11.44 C3.52 8.36, 7.96 3.43, 10.99 0.62 M-0.49 12.18 C2.19 8.47, 5.6 6.33, 11.24 -0.28 M1.14 19.37 C3.78 16.44, 5.67 10.24, 15.37 -1.2 M0.39 17.74 C5.25 12.04, 11.06 6.93, 15.27 0.81 M-1.13 23.37 C10.01 15.81, 15.86 6.14, 20.63 -0.55 M0.76 23.58 C6.43 17.15, 10.05 12.04, 21.36 -0.48 M-0.37 32.11 C5.72 24.54, 12.33 16.62, 25.1 1.19 M0.12 30.02 C7.95 20.98, 16.12 13.85, 25.95 -0.57 M0.23 38.69 C8.46 24.57, 17.54 14.26, 31.25 0.42 M0.71 37.73 C5.59 28.65, 13.01 21.97, 31.76 -0.42 M4.05 39.92 C13.18 27.93, 25.28 13.17, 35.19 0.86 M2.97 41.05 C15.2 24.13, 29.83 10.15, 36.33 -0.2 M7.11 40.9 C17.19 29.73, 25.82 17.45, 42.55 -1.11 M6.74 40.59 C19.21 27.29, 30.64 12.61, 42.97 -0.07 M13.34 41.71 C25.35 27.18, 33.1 17.94, 45.82 0.98 M13.49 39.77 C20.55 31.21, 29.14 21.41, 47.23 -0.74 M15.83 41.7 C27.26 30.91, 31.88 24.93, 52.24 0.99 M16.72 41.16 C29.67 28.79, 38.58 15.17, 53.81 -0.29 M20.77 41.41 C33.6 28.96, 42.23 15.07, 57.21 1.64 M22.93 40.25 C31.26 30.66, 39.74 22.71, 58.99 -0.77 M28.09 40.19 C36.53 30.57, 46.61 22.81, 64.09 -0.21 M29.33 41 C41.7 23.93, 56.22 7.52, 63.59 -0.92 M32.16 41.84 C48.44 25.48, 60.05 9.05, 69.66 -0.12 M33.55 41.5 C46.78 25.43, 61.39 9.76, 69.38 1.13 M40.94 40.68 C50.2 27.99, 63.9 15.34, 75.92 -0.72 M39.96 39.91 C48.25 29.58, 58.27 17.75, 74.06 -0.78 M45.43 39 C55.66 25.59, 66.84 12.68, 79.53 1.67 M44.07 41.87 C53.44 30.46, 60.49 21.06, 79.66 0.42 M51.48 40.38 C60.91 29.67, 69.6 18.26, 83.62 -1.59 M49.49 39.73 C57.47 31.4, 65.06 23.13, 85.47 0.37 M53.22 39.08 C69.1 25.01, 81.01 9.68, 91.23 1.92 M54.35 39.94 C64.54 31.32, 73.28 20.09, 90.53 0.59 M60.89 41.44 C69.3 32.59, 76.34 21.7, 97.13 -0.95 M60.26 40.31 C70.06 28.3, 81.47 17.24, 96.52 -0.21 M66.23 39.22 C72.14 29.96, 80.47 22.76, 101.24 0.47 M64.73 41.35 C79.5 23.85, 93.48 7.88, 100.2 -0.83 M70.39 38.97 C86.4 26.09, 97.86 8.11, 104.48 -1.98 M70.1 39.56 C84.78 24.04, 98.47 9.51, 106.38 -0.25 M77.23 39.46 C87.5 28.99, 98.92 16.53, 110.12 -1.88 M76 40.77 C86.07 28.13, 97.62 16.8, 110.32 -0.3 M81.27 41 C86.98 32.24, 95.77 25.64, 115.07 -0.17 M82.28 39.4 C93.76 24.48, 107.29 10.62, 116.04 0.34 M85.03 38.83 C96.52 31.61, 104.47 17.34, 122.46 0.57 M87.43 39.87 C99.39 26.78, 109.58 14.08, 122.02 -0.23 M90.9 40.5 C101.63 31.05, 110.02 19.18, 126.36 1.66 M91.55 39.8 C103.77 26.4, 116.7 12.05, 126.92 0.39 M98.53 39.25 C106.37 33.13, 112.41 20.99, 130.94 -1.5 M96.76 41.4 C109.1 26.09, 123.08 9.91, 131.88 -1.01 M104.69 39.38 C117.08 26.77, 127.64 10.96, 135.9 1.9 M102.14 40.75 C110.99 31.38, 118.26 23.87, 136.95 0.05 M108.67 41.62 C119.16 28.46, 129.1 15.12, 144.29 -0.51 M108.18 41.11 C119.76 25.49, 133.45 10.36, 143.99 -0.98 M112.13 40.49 C125.45 29.95, 133.97 17.4, 147.94 1.09 M113.73 40.25 C122.13 29.94, 131.31 21.69, 147.17 -0.28 M116.47 41.73 C132.92 26.93, 145.88 10.06, 155.3 0.08 M118.38 39.78 C132.86 23.62, 145.59 9.55, 153.86 -0.47 M122.75 39.61 C135.03 26.32, 146.99 14.17, 156.81 -1.24 M123.48 40.38 C136.42 27.16, 146.92 12.55, 159.1 0.84 M129.01 42.35 C141.31 25.34, 156.87 7.65, 164.82 1.74 M128.5 41.23 C135.86 32.52, 144.85 22.1, 164.5 0.23 M133.51 42.21 C144.04 28.05, 157.66 15.28, 170.9 1.34 M133.36 39.97 C141.59 33.36, 148.93 25.44, 168.73 -0.1 M139.41 41.16 C150.16 28.62, 160.12 14.47, 172.47 0.4 M140.14 40.32 C151.21 27.4, 161.06 14.61, 173.08 0.38 M143.39 40.46 C153.97 30.03, 160.1 20.62, 174.11 5.75 M144.79 41.63 C154.65 29.86, 162.92 18.11, 173.95 7.94 M150.89 38.8 C154.14 32.63, 160.38 25.55, 175.35 12.45 M149.39 40.92 C155.97 32.02, 164.22 25.71, 173.64 12.79 M153.47 41.69 C160.86 34.34, 165.65 25.91, 173.55 21.3 M154.66 40.25 C160.02 34.95, 164.98 30.65, 174.3 20.49 M160.71 38.91 C165.02 37.27, 167.86 35.24, 174.95 24.46 M160.8 39.98 C165.82 34.56, 170.86 28.51, 174.1 25.5 M165.68 41.21 C169.16 37.97, 171.44 33.99, 174.96 31.14 M165.96 40.35 C167.76 38.85, 169.21 37.01, 173.38 32.27" stroke="#fa5252" stroke-width="0.5" fill="none"></path><path d="M-0.71 1.3 C45.57 -2, 89.26 0.25, 172.55 -1.26 M0.68 -0.14 C56.15 1.47, 110.01 1.39, 172.85 -0.37 M172.99 -1.41 C171.01 12.83, 172.69 28.14, 171.9 40.42 M171.78 -0.58 C172 10.75, 172.2 23.24, 171.21 38.76 M170.55 40.38 C121.2 37.66, 71.09 40.8, 1.51 39.28 M171.65 39.99 C116.04 38.38, 62.33 38.94, 0.33 38.23 M1.18 39.51 C-0.12 29.23, -1.49 15.49, -1.71 1.55 M-0.84 38.14 C0.21 29.72, -0.06 21.84, 0.58 -0.92" stroke="#000000" stroke-width="1" fill="none"></path></g><g transform="translate(428 134) rotate(0 67 12.5)"><text x="67" y="18" font-family="Virgil, Segoe UI Emoji" font-size="20px" fill="#000000" text-anchor="middle" style="white-space: pre;" direction="ltr">ElasticSearch</text></g><g stroke-linecap="round"><g transform="translate(186 37.11633775702262) rotate(0 111.266167613226 -0.8001648882551251)"><path d="M-0.61 -1.01 C36.38 -1.31, 184.02 -0.85, 220.97 -0.88 M1.27 1.08 C38.71 0.34, 186.1 -2.55, 223.14 -2.68" stroke="#000000" stroke-width="1" fill="none"></path></g><g transform="translate(186 37.11633775702262) rotate(0 111.266167613226 -0.8001648882551251)"><path d="M193.4 6.22 C202.17 4.26, 207.78 3.23, 224.3 -4.51 M195.28 8.51 C205.21 3.76, 215.45 1.02, 223.64 -2.59" stroke="#000000" stroke-width="1" fill="none"></path></g><g transform="translate(186 37.11633775702262) rotate(0 111.266167613226 -0.8001648882551251)"><path d="M193.14 -14.3 C202.13 -11.77, 207.8 -8.31, 224.3 -4.51 M195.02 -12.01 C204.97 -9.45, 215.3 -4.87, 223.64 -2.59" stroke="#000000" stroke-width="1" fill="none"></path></g></g><g transform="translate(223 12) rotate(0 63.5 12.5)"><text x="0" y="18" font-family="Virgil, Segoe UI Emoji" font-size="20px" fill="#000000" text-anchor="start" style="white-space: pre;" direction="ltr">http request</text></g><g stroke-linecap="round"><g transform="translate(494 56) rotate(0 -0.2534938020463642 35.74740779173095)"><path d="M0.39 0.6 C0.34 12.44, 0.05 60.01, -0.08 71.63 M-0.87 -0.13 C-1.01 11.3, -0.55 57.93, -0.55 69.84" stroke="#000000" stroke-width="1" fill="none"></path></g><g transform="translate(494 56) rotate(0 -0.2534938020463642 35.74740779173095)"><path d="M-9.96 43.23 C-6.49 51.5, -5.38 60.84, -1.18 69.59 M-11.09 41.04 C-8.73 48.71, -5.68 55.45, -0.45 69.14" stroke="#000000" stroke-width="1" fill="none"></path></g><g transform="translate(494 56) rotate(0 -0.2534938020463642 35.74740779173095)"><path d="M10.56 43.12 C7.57 51.49, 2.22 60.86, -1.18 69.59 M9.43 40.94 C7.09 48.63, 5.43 55.4, -0.45 69.14" stroke="#000000" stroke-width="1" fill="none"></path></g></g><g transform="translate(539 63) rotate(0 78.5 25)"><text x="0" y="18" font-family="Virgil, Segoe UI Emoji" font-size="20px" fill="#000000" text-anchor="start" style="white-space: pre;" direction="ltr">serveral queries</text><text x="0" y="43" font-family="Virgil, Segoe UI Emoji" font-size="20px" fill="#000000" text-anchor="start" style="white-space: pre;" direction="ltr"> in parallel</text></g><g stroke-linecap="round"><g transform="translate(455.5 58.5) rotate(0 -0.5303657839663742 36.315023341709775)"><path d="M-1.19 0.65 C-1.44 12.61, -1.83 59.29, -1.74 71.1 M0.39 -0.05 C0.55 12.17, 0.86 61.12, 0.58 72.68" stroke="#000000" stroke-width="1" fill="none"></path></g><g transform="translate(455.5 58.5) rotate(0 -0.5303657839663742 36.315023341709775)"><path d="M-8.42 43.2 C-6.69 52.94, -3.28 60.64, -0.68 72.14 M-9.21 43.85 C-6.19 53.91, -1.54 64.79, 0.91 72.7" stroke="#000000" stroke-width="1" fill="none"></path></g><g transform="translate(455.5 58.5) rotate(0 -0.5303657839663742 36.315023341709775)"><path d="M12.1 43.32 C8.11 52.82, 5.8 60.49, -0.68 72.14 M11.31 43.97 C6.81 53.91, 3.95 64.75, 0.91 72.7" stroke="#000000" stroke-width="1" fill="none"></path></g></g><g stroke-linecap="round"><g transform="translate(525.5 59.5) rotate(0 -0.9515789881767205 35.41594754233958)"><path d="M0.06 -0.87 C-0.34 11.08, -2 59.87, -2.04 71.7 M-1.36 1.29 C-1.44 12.89, -0.01 58.33, 0.13 69.94" stroke="#000000" stroke-width="1" fill="none"></path></g><g transform="translate(525.5 59.5) rotate(0 -0.9515789881767205 35.41594754233958)"><path d="M-12.21 40.27 C-5.97 52.69, -4.96 61.4, 2.05 68.74 M-10.06 42.9 C-9.16 48.78, -4.77 55.45, 0.27 70.06" stroke="#000000" stroke-width="1" fill="none"></path></g><g transform="translate(525.5 59.5) rotate(0 -0.9515789881767205 35.41594754233958)"><path d="M8.31 39.8 C7.72 52.39, 1.91 61.25, 2.05 68.74 M10.45 42.43 C6.16 48.28, 5.36 55.08, 0.27 70.06" stroke="#000000" stroke-width="1" fill="none"></path></g></g></svg>